<mxfile host="app.diagrams.net" modified="2023-07-03T08:05:13.672Z" agent="Mozilla/5.0 (Windows NT 10.0; Win64; x64) AppleWebKit/537.36 (KHTML, like Gecko) Chrome/114.0.0.0 Safari/537.36" version="21.5.2" etag="EUO8FtrnGuiR0a5sTmjg" type="github">
  <diagram name="Halaman-1" id="jBYVcwmRMI5Rfm-R3Ytd">
    <mxGraphModel>
      <root>
        <mxCell id="0" />
        <mxCell id="1" parent="0" />
      </root>
    </mxGraphModel>
  </diagram>
</mxfile>
